<svg xmlns="http://www.w3.org/2000/svg" xmlns:xlink="http://www.w3.org/1999/xlink" width="119.169" height="42.092" viewBox="0 0 119.169 42.092">
  <defs>
    <clipPath id="clip-path">
      <rect id="Rectangle_2" data-name="Rectangle 2" width="119.169" height="42.092" transform="translate(0 0)" fill="none"/>
    </clipPath>
  </defs>
  <g id="iaea-logo-blue" transform="translate(0 0)">
    <g id="Group_1" data-name="Group 1" clip-path="url(#clip-path)">
      <path id="Path_1" data-name="Path 1" d="M16.349,36.6l.135-.172c-.563-.083-1.129-.8-1.286-1a17.8,17.8,0,0,0-1.4-2.3,30.654,30.654,0,0,0-3.541-3.9,17.539,17.539,0,0,0,1.33,4.2,4.971,4.971,0,0,0,2.889,2.613c-1.348-.422-2.049-.6-3.257-.874a32.827,32.827,0,0,1-4.343-1.192c-.4-.166-1.67-.78-1.67-.78a8.975,8.975,0,0,0,4.662,3.821c2.126.791,4.42-.034,6.479-.413" fill="#3662ce" fill-rule="evenodd"/>
      <path id="Path_2" data-name="Path 2" d="M10.747,34.262l.168-.037a4.175,4.175,0,0,1-.506-1.237,29.246,29.246,0,0,0-.846-3.848,23.844,23.844,0,0,0-2.37-4.3c.338,3.043-.242,5.524,2.477,8.512a2.925,2.925,0,0,1-.911-.811c-1.586-1.779-4.22-3.021-5.774-4.815-.4-.378-.64-1-1.113-1.306a13.036,13.036,0,0,0,2.143,4.667,7.508,7.508,0,0,0,5.323,2.8,6.1,6.1,0,0,1,1.409.381" fill="#3662ce" fill-rule="evenodd"/>
      <path id="Path_3" data-name="Path 3" d="M6.629,29.48l.2-.035a5.525,5.525,0,0,1-.41-1.858c.044-.928.184-2.121.2-3.374a10.548,10.548,0,0,0-.9-4.911c-.506,2.167-1,4.764-.422,7.033a8.35,8.35,0,0,1,.449,1.5A19.455,19.455,0,0,0,3.54,24.384a22.183,22.183,0,0,1-1.98-2.307A10.611,10.611,0,0,1,.439,20.042,7.232,7.232,0,0,0,.551,21.71,14.17,14.17,0,0,0,1.4,24.247c.945,2.373,2.842,2.966,5.223,5.232" fill="#3662ce" fill-rule="evenodd"/>
      <path id="Path_4" data-name="Path 4" d="M3.828,23.738h.167a2.728,2.728,0,0,1,0-1.478,21.962,21.962,0,0,0,1.427-3.838,11.384,11.384,0,0,0,.39-2.453,4.289,4.289,0,0,0-.058-1.037S2.96,18.679,3.322,21.775A22.587,22.587,0,0,0,1,15.337,19.9,19.9,0,0,1,.321,13.3a8.534,8.534,0,0,0-.113,4.188,8.693,8.693,0,0,0,1.179,2.718c.744,1.193,1.772,2.324,2.441,3.532" fill="#3662ce" fill-rule="evenodd"/>
      <path id="Path_5" data-name="Path 5" d="M3.114,18.764a12.1,12.1,0,0,1,.565-1.7c.183-.389,1.246-1.689,2.01-3.033A19.684,19.684,0,0,0,7.371,10.2c-1.654,1.616-3.44,2.739-4.136,5.066.407-1.765.061-3.1-.176-4.918A9.207,9.207,0,0,1,3.49,7.143,6.874,6.874,0,0,0,2.174,9.515c-1.4,3.167.1,6.243.779,9.131Z" fill="#3662ce" fill-rule="evenodd"/>
      <path id="Path_6" data-name="Path 6" d="M4.024,12.688a9.86,9.86,0,0,1,1.831-1.876c.419-.3,3.34-3.163,3.846-5.123-1.417,1.719-3.745,2.2-4.724,4.366.4-1.865.871-4.393,1.047-4.916L6.53,3.833A7.147,7.147,0,0,0,4,7.877a9.424,9.424,0,0,0-.111,3.361c.079.647.067,1.009.132,1.45" fill="#3662ce" fill-rule="evenodd"/>
      <path id="Path_7" data-name="Path 7" d="M6.01,7.831c2.328-1.066,3.476-3.61,4.961-5.5A7.505,7.505,0,0,0,6.2,6.9a2.351,2.351,0,0,0-.185.936" fill="#3662ce" fill-rule="evenodd"/>
      <path id="Path_8" data-name="Path 8" d="M37.118,35.319c-1.206.273-1.908.451-3.257.872a4.971,4.971,0,0,0,2.894-2.617,18.017,18.017,0,0,0,1.394-4.244,31.529,31.529,0,0,0-3.607,3.949,18.161,18.161,0,0,0-1.4,2.3c-.157.2-.723.92-1.286,1l.134.172c2.059.379,4.353,1.2,6.479.413a8.981,8.981,0,0,0,4.662-3.82s-1.274.613-1.67.779a32.607,32.607,0,0,1-4.343,1.2" fill="#3662ce" fill-rule="evenodd"/>
      <path id="Path_9" data-name="Path 9" d="M45.353,27.885c-1.553,1.8-4.187,3.036-5.773,4.817a2.977,2.977,0,0,1-.912.811c2.719-2.99,2.139-5.471,2.477-8.514a43.218,43.218,0,0,0-2.159,4.481,24.192,24.192,0,0,0-1.057,3.664,4.7,4.7,0,0,1-.5,1.239l.166.037a6.26,6.26,0,0,1,1.41-.382,7.5,7.5,0,0,0,5.323-2.794,13.031,13.031,0,0,0,2.143-4.666c-.473.309-.709.928-1.114,1.306" fill="#3662ce" fill-rule="evenodd"/>
      <path id="Path_10" data-name="Path 10" d="M46.773,22.235A21.9,21.9,0,0,1,44.8,24.541a19.354,19.354,0,0,0-2.205,3.446,8.447,8.447,0,0,1,.447-1.494c.574-2.271.085-4.867-.421-7.033a10.532,10.532,0,0,0-.906,4.91c.019,1.253.159,2.448.2,3.376A5.543,5.543,0,0,1,41.5,29.6l.2.033c2.38-2.265,4.277-2.859,5.221-5.231a14.091,14.091,0,0,0,.852-2.537,7.246,7.246,0,0,0,.112-1.67,10.445,10.445,0,0,1-1.121,2.035" fill="#3662ce" fill-rule="evenodd"/>
      <path id="Path_11" data-name="Path 11" d="M47.817,13.385a7.617,7.617,0,0,1-.312,1.368,32.046,32.046,0,0,0-2.489,7.184c.361-3.1-2.413-6.848-2.413-6.848a4.033,4.033,0,0,0-.077,1.04,11.454,11.454,0,0,0,.389,2.454,21.918,21.918,0,0,0,1.426,3.834,2.755,2.755,0,0,1,0,1.48h.169c.668-1.208,1.7-2.34,2.441-3.533a8.5,8.5,0,0,0,1.135-2.713,6.8,6.8,0,0,0-.269-4.266" fill="#3662ce" fill-rule="evenodd"/>
      <path id="Path_12" data-name="Path 12" d="M45.15,10.43a13.041,13.041,0,0,0-.049,5c-.7-2.326-2.482-3.449-4.135-5.066a19.631,19.631,0,0,0,1.665,3.742c.913,1.555,1.864,2.6,2.029,2.928a8.992,8.992,0,0,1,.615,1.715l.114-.091c.675-2.888,2.055-5.956.773-8.982A6.862,6.862,0,0,0,44.846,7.3a8.788,8.788,0,0,1,.3,3.129" fill="#3662ce" fill-rule="evenodd"/>
      <path id="Path_13" data-name="Path 13" d="M43.36,10.214c-.979-2.167-3.307-2.648-4.725-4.367.507,1.96,3.428,4.822,3.847,5.123a9.83,9.83,0,0,1,1.831,1.876c.067-.442.053-.8.132-1.45a9.447,9.447,0,0,0-.111-3.361,7.152,7.152,0,0,0-2.528-4.046L42.312,5.3c.176.525.648,3.052,1.047,4.918" fill="#3662ce" fill-rule="evenodd"/>
      <path id="Path_14" data-name="Path 14" d="M42.383,7.99a2.351,2.351,0,0,0-.185-.936,7.5,7.5,0,0,0-4.776-4.565c1.485,1.891,2.633,4.436,4.961,5.5" fill="#3662ce" fill-rule="evenodd"/>
      <path id="Path_15" data-name="Path 15" d="M36.089,38.549c-1.483-.277-3.339-.913-5.04-1.22a11.551,11.551,0,0,0-3.661-.232,21.8,21.8,0,0,0-2.96.522,36.279,36.279,0,0,0-3.711-.721,12.962,12.962,0,0,0-3.328.272c-1.7.306-3.557.942-5.041,1.22a8.666,8.666,0,0,1-3.441-.31,7.619,7.619,0,0,0,3.036,1.48c4.508,1.248,8.577-1.357,9.772-1.573a4.13,4.13,0,0,1,1.79-.08L23.2,38a13.732,13.732,0,0,0-5.264,3.61,3.671,3.671,0,0,0,.906.483,5.647,5.647,0,0,1,1.727-1.962,11.728,11.728,0,0,1,3.875-1.988,11.187,11.187,0,0,1,3.427,1.83,5.67,5.67,0,0,1,1.727,1.96,3.664,3.664,0,0,0,.9-.482,13.7,13.7,0,0,0-4.994-3.508,8.783,8.783,0,0,1,1.216.2c1.195.216,5.263,2.82,9.771,1.574a7.638,7.638,0,0,0,3.038-1.479,8.673,8.673,0,0,1-3.443.309" fill="#3662ce" fill-rule="evenodd"/>
      <path id="Path_16" data-name="Path 16" d="M37.175,16.649c-.2-1.585-2.9-2.6-6.772-2.818.959-7.4-.095-13.2-2.709-13.719a3.031,3.031,0,0,0-1.363.031A.636.636,0,0,0,25.872,0,.7.7,0,0,0,25.166.7V.7L25.2.912A19.807,19.807,0,0,0,21.04,7.563a2.456,2.456,0,0,0-2.258-.447c-.849.377-1.4,1.631-1.4,3.316a.532.532,0,0,0-.233.513.71.71,0,0,0,.437.586c.039.407.1.836.172,1.282-1.125-.052-1.942.193-2.285.772-.362.611-.134,1.5.544,2.514-3.271,1.286-5.308,2.916-5.123,4.395.2,1.574,2.9,2.706,6.749,2.955-.209,5.456.861,9.4,3.016,9.9,1.606.374,3.5-1.413,5.209-4.535,1.294,1.155,2.477,1.655,3.339,1.272,1.2-.531,1.52-2.65,1.055-5.536,1.236.111,2.136-.116,2.5-.735l.129-.28a.64.64,0,0,0,.373-.619.672.672,0,0,0-.534-.635,5.687,5.687,0,0,0-.678-1.244c3.272-1.286,5.309-2.917,5.123-4.4M25.587,1.4a.875.875,0,0,0,.4.107A.66.66,0,0,0,26.68.956a1.814,1.814,0,0,1,.737-.035c2.347.446,3.291,5.9,2.458,12.887a32.967,32.967,0,0,0-3.584.077,20.168,20.168,0,0,0-4.8-6.014c1.252-3.128,2.7-5.455,4.1-6.472M29.176,18.08q-.585-.479-1.244-.948l-.1-.228c-.421-.93-.868-1.815-1.33-2.649a32.725,32.725,0,0,1,3.329-.076c-.151,1.188-.352,2.417-.606,3.672l-.048.229M22.15,23.219c.793-.06,1.607-.145,2.438-.266.121-.019.241-.036.362-.056a23.02,23.02,0,0,0,2.616,1.055,32.1,32.1,0,0,1-1.8,4.217,23.037,23.037,0,0,1-3.615-4.95M27.4,17.256c.481,1.056.9,2.1,1.248,3.1q-.193.754-.406,1.478c-.979.241-2.015.451-3.092.624-.832-.386-1.694-.839-2.564-1.353-.787-.466-1.526-.952-2.208-1.444a35.341,35.341,0,0,1-1.3-3.448l.056-.279c.032-.155.064-.308.1-.461a37.549,37.549,0,0,1,3.692-.795,29.034,29.034,0,0,1,2.643,1.389c.642.381,1.253.774,1.826,1.173l.007.013m-1.565-1.49c-.751-.445-1.5-.843-2.229-1.193h.006q1.162-.172,2.277-.268c.4.7.788,1.45,1.161,2.229q-.591-.391-1.225-.767m-2.345-1.571-.527.081a20.015,20.015,0,0,0-3.18-1.132,44.865,44.865,0,0,1,1.482-4.7,18.594,18.594,0,0,1,4.424,5.488c-.716.065-1.452.15-2.2.26m-1.212.2c-1.027.183-2.013.4-2.948.645q.174-.789.365-1.553a19.2,19.2,0,0,1,2.583.908m-3.511.755c-.187-.678-.337-1.328-.453-1.941.274.034.566.087.874.154q-.22.872-.421,1.787m-.2.964q-.186.917-.333,1.81A12.836,12.836,0,0,1,16.7,16.276c.547-.2,1.128-.4,1.738-.575.04.136.08.272.122.409m.345,1.048q.332.963.745,1.961c-.333-.257-.646-.514-.943-.771.061-.393.127-.791.2-1.191m1.108,2.81.151.34c.409.9.84,1.758,1.286,2.569-.437.028-.867.048-1.286.058a.532.532,0,0,0-.59-.424c-.3.028-.419.08-.546.324-.267,0-.531-.006-.794-.019.069-1.249.2-2.57.394-3.936q.644.546,1.385,1.088m.735.52q.807.552,1.7,1.08c.627.37,1.251.71,1.863,1.016q-1.215.169-2.37.257c-.41-.743-.809-1.532-1.189-2.353m5.057,2.265c.794-.141,1.565-.3,2.305-.483-.124.41-.253.812-.385,1.2q-.978-.312-1.92-.721m2.8-.606c.193-.049.384-.1.571-.152.2.675.357,1.324.485,1.94a11.409,11.409,0,0,1-1.527-.34q.243-.707.471-1.449m.133-.439c.057-.195.114-.389.171-.586.053.168.107.334.156.5l-.326.088m.414-1.48q.178-.674.34-1.364a14.021,14.021,0,0,1,1.922,2.013c-.587.215-1.213.419-1.872.611q-.182-.616-.4-1.256m-.277-.785q-.288-.781-.624-1.583.435.33.833.659c-.066.312-.137.621-.209.924m-10.79-7.888a.665.665,0,0,0,.429-.648.533.533,0,0,0-.34-.551c.052-1.244.266-2.206.913-2.494a1.92,1.92,0,0,1,1.726.288,43.486,43.486,0,0,0-1.539,4.871c-.358-.076-.7-.133-1.021-.169-.077-.454-.133-.889-.168-1.3m-2.143,2.212c.276-.466.945-.658,1.882-.609.128.683.3,1.4.506,2.153-.656.194-1.284.4-1.872.622-.606-.894-.818-1.658-.515-2.167m-4.464,6.652c-.166-1.312,1.745-2.784,4.785-3.972a14.153,14.153,0,0,0,1.88,2.012c-.234,1.513-.389,2.967-.465,4.336-3.5-.193-6.026-.982-6.2-2.37M20.94,32.864C18.969,32.683,18,28.807,18.2,23.482c.276.011.554.019.84.02a.6.6,0,0,0,.556.274.524.524,0,0,0,.567-.455c.487-.015.985-.036,1.494-.068a23.606,23.606,0,0,0,3.906,5.285c-1.537,2.818-3.211,4.456-4.622,4.325m8.014-3.253c-.734.326-1.755-.125-2.891-1.156a33.986,33.986,0,0,0,1.9-4.378,13.055,13.055,0,0,0,1.8.419c.48,2.691.241,4.648-.808,5.115m3.289-7.249a.663.663,0,0,0-.332.572.656.656,0,0,0,.237.5c-.31.453-1.016.627-1.989.556-.128-.678-.3-1.393-.506-2.135.7-.206,1.373-.427,2-.662a4.215,4.215,0,0,1,.59,1.164m-.422-1.633a15.5,15.5,0,0,0-2.23-2.3q.071-.309.136-.623c.262-1.229.471-2.434.631-3.6,3.611.188,6.11,1.089,6.29,2.512.168,1.336-1.75,2.82-4.826,4.01" fill="#3662ce" fill-rule="evenodd"/>
      <path id="Path_17" data-name="Path 17" d="M25.3,20.828a.869.869,0,1,0,.87-.869.869.869,0,0,0-.87.869Z" fill="#3662ce" fill-rule="evenodd"/>
      <rect id="Rectangle_1" data-name="Rectangle 1" width="3.365" height="16.679" transform="translate(56.623 12.836)" fill="#3662ce"/>
      <path id="Path_18" data-name="Path 18" d="M81.086,29.516H77.424l-1.43-3.794H69.316L67.93,29.516H64.36l6.5-16.681h3.578Zm-6.179-6.607-2.3-6.18-2.259,6.18Z" fill="#3662ce"/>
      <path id="Path_19" data-name="Path 19" d="M85.733,29.516V12.836H98.094v2.815h-9v3.7H97.47v2.817H89.094V26.7H98.4v2.815Z" fill="#3662ce"/>
      <path id="Path_20" data-name="Path 20" d="M119.169,29.516h-3.661l-1.432-3.794H107.4l-1.386,3.794h-3.566l6.5-16.681h3.581Zm-6.179-6.607-2.3-6.18-2.26,6.18Z" fill="#3662ce"/>
    </g>
  </g>
</svg>
